<svg xmlns="http://www.w3.org/2000/svg" width="1180" height="610" viewBox="0 0 1180 610" role="img" aria-labelledby="title desc"><title id="title">Tushar Singh — Data Analyst and Business Analyst</title><desc id="desc">Animated premium GitHub profile banner</desc><defs><linearGradient id="bg" x1="0" y1="0" x2="1" y2="1"><stop offset="0" stop-color="#030712"/><stop offset="1" stop-color="#0f172a"/></linearGradient><linearGradient id="accent" x1="0" y1="0" x2="1" y2="0"><stop offset="0" stop-color="#7c3aed"><animate attributeName="stop-color" values="#7c3aed;#22d3ee;#10b981;#7c3aed" dur="8s" repeatCount="indefinite"/></stop><stop offset="1" stop-color="#22d3ee"><animate attributeName="stop-color" values="#22d3ee;#10b981;#7c3aed;#22d3ee" dur="8s" repeatCount="indefinite"/></stop></linearGradient><filter id="glow"><feGaussianBlur stdDeviation="7" result="b"/><feMerge><feMergeNode in="b"/><feMergeNode in="SourceGraphic"/></feMerge></filter><clipPath id="card"><rect x="12" y="12" width="1156" height="586" rx="28"/></clipPath></defs><g clip-path="url(#card)"><rect x="12" y="12" width="1156" height="586" rx="28" fill="url(#bg)" stroke="#ffffff" stroke-opacity=".1"/><circle cx="170" cy="120" r="170" fill="#7c3aed" opacity=".12"><animate attributeName="cy" values="120;150;120" dur="7s" repeatCount="indefinite"/></circle><circle cx="1010" cy="500" r="220" fill="#22d3ee" opacity=".08"><animate attributeName="cx" values="1010;970;1010" dur="9s" repeatCount="indefinite"/></circle><g transform="translate(62 72)"><rect width="398" height="466" rx="24" fill="#0f172a" fill-opacity=".82" stroke="#ffffff" stroke-opacity=".08"/><text x="34" y="58" fill="#94a3b8" font-family="monospace" font-size="17">tushar@analytics:~$</text><g fill="url(#accent)" filter="url(#glow)" font-family="monospace" font-size="22"><text x="36" y="116">████████████████</text><text x="36" y="148">██            ██</text><text x="36" y="180">██  DATA • BI  ██</text><text x="36" y="212">██  SQL • ML   ██</text><text x="36" y="244">██  FINANCE    ██</text><text x="36" y="276">██            ██</text><text x="36" y="308">████████████████</text><animateTransform attributeName="transform" type="translate" values="0 0;0 -7;0 0" dur="5s" repeatCount="indefinite"/></g><text x="36" y="368" fill="#22d3ee" font-family="monospace" font-size="16">building decision-ready insights</text><rect x="36" y="392" width="4" height="22" fill="#22d3ee"><animate attributeName="opacity" values="1;0;1" dur="1s" repeatCount="indefinite"/></rect></g><g transform="translate(500 72)"><rect width="618" height="466" rx="24" fill="#0f172a" fill-opacity=".78" stroke="#ffffff" stroke-opacity=".08"/><circle cx="32" cy="30" r="6" fill="#ef4444"/><circle cx="52" cy="30" r="6" fill="#f59e0b"/><circle cx="72" cy="30" r="6" fill="#10b981"/><text x="38" y="94" fill="#f8fafc" font-family="Arial, sans-serif" font-size="24">Hi, I’m</text><text x="38" y="144" fill="url(#accent)" filter="url(#glow)" font-family="Arial, sans-serif" font-weight="700" font-size="46">Tushar Singh</text><text x="38" y="188" fill="#cbd5e1" font-family="monospace" font-size="22">Data Analyst • Business Analyst</text><text x="38" y="232" fill="#94a3b8" font-family="Arial, sans-serif" font-size="17">📍 Jamshedpur, India</text><text x="38" y="264" fill="#94a3b8" font-family="Arial, sans-serif" font-size="17">🎓 B.Tech in Data Analysis — Bennett University</text><text x="38" y="296" fill="#94a3b8" font-family="Arial, sans-serif" font-size="17">🎯 Financial analytics, risk, BI & automation</text><g font-family="Arial, sans-serif" font-size="15" fill="#e2e8f0"><g transform="translate(38 334)"><rect width="82" height="34" rx="17" fill="#7c3aed" fill-opacity=".22" stroke="#7c3aed"/><text x="20" y="22">Python</text></g><g transform="translate(132 334)"><rect width="66" height="34" rx="17" fill="#22d3ee" fill-opacity=".18" stroke="#22d3ee"/><text x="18" y="22">SQL</text></g><g transform="translate(210 334)"><rect width="86" height="34" rx="17" fill="#10b981" fill-opacity=".18" stroke="#10b981"/><text x="15" y="22">Power BI</text></g><g transform="translate(308 334)"><rect width="72" height="34" rx="17" fill="#7c3aed" fill-opacity=".22" stroke="#7c3aed"/><text x="17" y="22">Excel</text></g><g transform="translate(392 334)"><rect width="92" height="34" rx="17" fill="#22d3ee" fill-opacity=".18" stroke="#22d3ee"/><text x="16" y="22">Streamlit</text></g></g><text x="38" y="420" fill="#64748b" font-family="monospace" font-size="15">github.com/Tusharsingh23Up</text><rect x="38" y="436" width="348" height="2" fill="url(#accent)"><animate attributeName="width" values="40;500;40" dur="6s" repeatCount="indefinite"/></rect></g><rect y="0" width="1180" height="4" fill="url(#accent)"><animate attributeName="y" values="0;606;0" dur="10s" repeatCount="indefinite"/></rect></g></svg>